<?xml version="1.0" encoding="utf-8"?>
<!-- Generator: Adobe Illustrator 16.0.0, SVG Export Plug-In . SVG Version: 6.00 Build 0)  -->
<!DOCTYPE svg PUBLIC "-//W3C//DTD SVG 1.1//EN" "http://www.w3.org/Graphics/SVG/1.1/DTD/svg11.dtd">
<svg version="1.1" id="Layer_1" xmlns="http://www.w3.org/2000/svg" xmlns:xlink="http://www.w3.org/1999/xlink" x="0px" y="0px"
	 width="512px" height="512px" viewBox="0 0 512 512" enable-background="new 0 0 512 512" xml:space="preserve">
<path fill="#2795EE" d="M0,0h77.75C58.18,0.3,38.82,8.09,24.67,21.63C9.34,35.99,0.32,56.68,0,77.66V0z"/>
<path fill="#FFFFFF" d="M77.75,0H197.28c7.471,0.311,14.7,2.8,21.101,6.59c14.74,8.62,26.52,21.171,38.85,32.78
	c-12.729,0.3-25.68-0.97-38.2,1.99c-3.06,0.71-6.119,1.42-9.199,2.06c-2.82-2.21-6.04-4.439-9.811-4.13
	c-40.3,0.11-80.6-0.01-120.89,0.13C67.28,39.43,55.54,44.84,48.19,54.18c-6.21,7.43-8.93,17.21-8.81,26.779
	c0,87.681,0,175.37,0,263.061c0.01,6.71-0.3,13.54,1.33,20.12c2.75,10.979,10.53,20.58,20.71,25.55c6.33,3.24,13.55,4.18,20.59,4.16
	c18.62-0.011,37.229-0.011,55.85,0c0,13.12,0,26.239,0,39.37c-19.939-0.03-39.88,0.069-59.819-0.05
	c-19.5-0.101-38.8-7.83-52.98-21.221C9.42,397.52,0.23,376.53,0,355.27V77.66C0.32,56.68,9.34,35.99,24.67,21.63
	C38.82,8.09,58.18,0.3,77.75,0z"/>
<path fill="#2795EE" d="M197.28,0H512V216.39c-0.671-16.15-11.271-29.32-21.311-41.061c-13.37-14.96-28.04-28.689-42.15-42.93
	c-13.819-13.811-27.529-27.74-41.409-41.49c-10.351-9.76-20.851-19.74-33.511-26.47c-6.58-3.66-14.09-5.45-21.6-5.391
	c-37.69-0.01-75.37,0-113.06-0.01c-7.75,0.021-15.55,0.721-23.05,2.78C195.31,67.27,177.28,81.57,167.15,100.3
	c-6.489,11.801-9.67,25.301-9.609,38.75c-0.021,97.631-0.021,195.271,0,292.911c-0.41,24.52,11.26,48.869,30.85,63.67
	c13.38,10.399,30.2,16.13,47.13,16.369H0V355.27c0.229,21.26,9.42,42.25,25.06,56.68c14.181,13.391,33.48,21.12,52.98,21.221
	c19.939,0.119,39.88,0.02,59.819,0.05c0-13.131,0-26.25,0-39.37c-18.62-0.011-37.229-0.011-55.85,0
	c-7.04,0.02-14.26-0.92-20.59-4.16c-10.18-4.97-17.96-14.57-20.71-25.55c-1.63-6.58-1.32-13.41-1.33-20.12
	c0-87.69,0-175.38,0-263.061c-0.12-9.569,2.6-19.35,8.81-26.779C55.54,44.84,67.28,39.43,79.13,39.42
	c40.29-0.14,80.59-0.02,120.89-0.13c3.771-0.31,6.99,1.92,9.811,4.13c3.08-0.64,6.14-1.35,9.199-2.06
	c12.521-2.96,25.471-1.69,38.2-1.99C244.9,27.76,233.12,15.21,218.38,6.59C211.98,2.8,204.75,0.31,197.28,0z"/>
<path fill="#FFFFFF" d="M215.91,61.82c7.5-2.06,15.3-2.76,23.05-2.78c37.689,0.01,75.369,0,113.06,0.01
	c7.51-0.06,15.02,1.73,21.6,5.391c12.66,6.729,23.16,16.71,33.511,26.47c13.88,13.75,27.59,27.68,41.409,41.49
	c14.11,14.24,28.78,27.97,42.15,42.93c10.04,11.74,20.64,24.91,21.311,41.061v217.96c-0.32,19.54-8.11,38.85-21.641,52.99
	c-14.39,15.359-35.15,24.39-56.18,24.659H235.52c-16.93-0.239-33.75-5.97-47.13-16.369c-19.59-14.801-31.26-39.15-30.85-63.67
	c-0.021-97.641-0.021-195.28,0-292.911c-0.061-13.449,3.12-26.949,9.609-38.75C177.28,81.57,195.31,67.27,215.91,61.82z"/>
<path fill="#2795EE" d="M235.42,98.58c40.53-0.29,81.069-0.069,121.6-0.22c5.61-0.39,10.87,3.41,13.27,8.33
	c2.79,5.64,3.391,12.05,3.681,18.26c0.29,15.021,0.13,30.04,0.17,45.061c0.03,5.3-0.46,10.93,2.06,15.8
	c3.16,6.689,10.32,11.14,17.721,11.1c17.71,0.21,35.43-0.25,53.13,0.36c7.52,0.55,15.95,1.529,21.409,7.319
	c3.83,3.71,3.95,9.41,4.171,14.381c-0.051,71.35,0.06,142.699-0.061,214.05c0.16,16.36-10.83,32.08-26.38,37.27
	c-6.47,2.36-13.46,2.391-20.26,2.33c-59.311-0.01-118.61,0-177.92,0c-8.36-0.05-17.021,0.551-25.01-2.439
	c-15.38-5.32-26.23-20.97-26-37.22c-0.11-97.32,0-194.641-0.061-291.95c0.061-5.311,0.351-10.721,2.2-15.75
	C204.09,109.92,219.3,98.73,235.42,98.58z"/>
<path fill="#FFFFFF" d="M353.44,251.35c10.03-9.271,23.95-14.511,37.63-13.16c12.521,0.93,24.311,7.76,31.771,17.79
	c10.66,13.859,11.52,33.859,3.069,49c-3.59,7.3-9.409,13.149-15.13,18.81c-12.99,12.98-25.97,25.98-38.97,38.96
	c-10.01,10.2-24.39,16.21-38.73,15.391c-11.13-0.511-22.069-5.42-29.659-13.591c-4.48-5.13-3.431-14.039,2.35-17.77
	c5.03-3.47,12.22-2.37,16.4,1.97c8.83,8.09,23.25,5.721,31.279-2.35c15.09-14.9,30.021-29.98,45.03-44.96
	c4.7-4.63,8.18-10.771,8.57-17.45c0.72-7.14-3.021-14.34-8.971-18.24c-6.829-4.75-16.279-4.08-23.229,0.05
	c-6.47,3.94-11.16,10.04-16.641,15.15c-4.439-3.42-10.069-4.29-15.399-5.41c-5.44-0.76-11.5-0.93-16.23,2.29
	C335.65,269.13,344.19,259.86,353.44,251.35z"/>
<path fill="#FFFFFF" d="M294.22,310.27c8.85-9.12,21.13-15.01,33.87-15.641c13.02-0.869,26.319,4.301,35.21,13.881
	c4.27,5.579,2.649,14.77-3.73,18.06c-4.85,2.62-11.17,1.61-15.06-2.271c-5.61-5.279-14.141-6.6-21.32-4.149
	c-4.689,1.45-8.71,4.439-12.12,7.899c-13.46,13.53-27,27-40.439,40.551c-4.4,4.42-7.63,10.21-8.11,16.51
	c-0.85,7.22,2.771,14.63,8.811,18.6c6.409,4.521,15.239,4.24,22.04,0.74c5.989-3.02,10.22-8.38,14.979-12.92
	c4.5,3.42,10.189,4.33,15.59,5.42c5.35,0.66,11.35,0.95,15.98-2.31c-9.25,8.85-17.69,18.59-27.61,26.71
	c-9.69,7.35-22.13,11.28-34.3,9.95c-12.12-1.13-23.64-7.58-30.97-17.301c-7.21-9.26-10.24-21.46-8.811-33.06
	c1.65-10.95,6.9-21.19,14.59-29.141C266.52,337.86,280.43,324.13,294.22,310.27z"/>
<path fill="#2795EE" d="M490.36,487.341c13.53-14.141,21.32-33.45,21.641-52.99V512h-77.82
	C455.209,511.73,475.97,502.7,490.36,487.341z"/>
</svg>
